# xmcd
#
# Track frame offsets: 
#        150
#        10161
#        27823
#        42734
#        59291
#        75440
#        91614
#        110637
#        131562
#        149581
#        165055
#        182768
#        193305
#        207279
#
# Disc length: 2994 seconds
#
# Revision: 0
# Processed by: cddbd v1.5.2PL0 Copyright (c) Steve Scherf et al.
# Submitted via: ExactAudioCopy v1.1
#
DISCID=b80bb00e
DTITLE=Andi's Blues Orchester - Just blown in your town
DYEAR=2016
DGENRE=Blues
TTITLE0=Lonesome Stomp
TTITLE1=Kansas City Blues
TTITLE2=Truckin' My Blues Away
TTITLE3=Good Morning Little Schoolgirl
TTITLE4=Bad Feeling Blues
TTITLE5=I Hear My Mother Calling
TTITLE6=I'm A Stranger Here
TTITLE7=Rollin' And Tmblin'
TTITLE8=Honey That Must Be Love
TTITLE9=Down By The Riverside
TTITLE10=The New Sugar Mama
TTITLE11=Statesboro BLues
TTITLE12=Hard Road Blues
TTITLE13=It Ain't Be Long Fo' Day
EXTD=
EXTT0=
EXTT1=
EXTT2=
EXTT3=
EXTT4=
EXTT5=
EXTT6=
EXTT7=
EXTT8=
EXTT9=
EXTT10=
EXTT11=
EXTT12=
EXTT13=
PLAYORDER=
